# xmcd
#
# Track frame offsets: 
#        150
#        8911
#        19554
#        30590
#        40687
#        51589
#        61519
#        73813
#        85894
#        98057
#        108512
#        118277
#        129311
#        140842
#        152045
#        163441
#        174358
#        185088
#        197495
#        209062
#        219150
#        230127
#        239973
#        250173
#        261129
#        271148
#        281541
#        294952
#        303514
#        315668
#        325059
#        334536
#        343314
#        353345
#        366365
#        376335
#
# Disc length: 5136 seconds
#
# Revision: 2
# Processed by: cddbd v1.5.2PL0 Copyright (c) Steve Scherf et al.
# Submitted via: ExactAudioCopyFreeDBPlugin 1.0
#
DISCID=27140e24
DTITLE=Smiley Lewis - Smiley Lewis Rocks 
DYEAR=2010
DGENRE=New Orleans Dance Blues
TTITLE0=Shame, Shame, Shame
TTITLE1=Big Mamou
TTITLE2=Ain't  Gonna Do It
TTITLE3=Down The Road
TTITLE4=The Bells Are Ringing
TTITLE5=Can't Stop Loving You
TTITLE6=Ooh La La
TTITLE7=My Baby Was Right
TTITLE8=Blue Monday
TTITLE9=Dirty People
TTITLE10=Jailbird
TTITLE11=Where Were You
TTITLE12=Real Gone Lover
TTITLE13=Bumpity Bump
TTITLE14=I Hear You Knocking
TTITLE15=Sad Life
TTITLE16=Come On
TTITLE17=Bee´s Boogie
TTITLE18=Queen Of Hearts
TTITLE19=Lillie Mea
TTITLE20=One Night
TTITLE21=Cadonia's Party
TTITLE22=Nothing But The Blues
TTITLE23=She's Got Me Hook, Line And Sinker
TTITLE24=Rootin' and Tootin'
TTITLE25=Please Listen To Me
TTITLE26=Down Yonder We Go Ballin'
TTITLE27=No Letter Today
TTITLE28=Mama Don't Like It
TTITLE29=Play Girl
TTITLE30=Go On Fool
TTITLE31=Goin' To Jump And Shout
TTITLE32=Bad Luck Blues
TTITLE33=School Days Are Back Again
TTITLE34=Lil Liza Jane
TTITLE35=Shame, Shame, Shame (faster version)
EXTD=Bear Family Records, germany
EXTT0=1956
EXTT1=1953
EXTT2=1956
EXTT3=1954
EXTT4=
EXTT5=1954
EXTT6=
EXTT7=
EXTT8=
EXTT9=
EXTT10=
EXTT11=
EXTT12=fantastic uptempo R&B number - 1955
EXTT13=
EXTT14=
EXTT15=
EXTT16=
EXTT17=
EXTT18=
EXTT19=
EXTT20=
EXTT21=
EXTT22=
EXTT23=
EXTT24=
EXTT25=
EXTT26=
EXTT27=
EXTT28=
EXTT29=
EXTT30=
EXTT31=
EXTT32=1957
EXTT33=
EXTT34=1958
EXTT35=1956
PLAYORDER=
